# xmcd
#
# Track frame offsets:
# 150
# 23084
# 41104
# 60570
# 78021
#
# Disc length: 1237 seconds
#
# Revision: 0
# Processed by: cddbd v1.5.1PL2 Copyright (c) Steve Scherf et al.
# Submitted via: Audion 3.0.2 (http://www.panic.com/audion/)
#
DISCID=3104d305
DTITLE=YUJI TORIYAMA - Winter's Gift
DYEAR=1900
DGENRE=
TTITLE0=Starlight
TTITLE1=Ave Maria
TTITLE2=Majestic Shadow
TTITLE3=Gen Mon
TTITLE4=What child is this(Green sleeves)
EXTD=
EXTT0=
EXTT1=
EXTT2=
EXTT3=
EXTT4=
PLAYORDER=
